<?xml version="1.0" standalone="no"?>
<!DOCTYPE svg PUBLIC "-//W3C//DTD SVG 20010904//EN"
 "http://www.w3.org/TR/2001/REC-SVG-20010904/DTD/svg10.dtd">
<svg version="1.0" xmlns="http://www.w3.org/2000/svg"
 width="300.000000pt" height="169.000000pt" viewBox="0 0 300.000000 169.000000"
 preserveAspectRatio="xMidYMid meet">
<metadata>
Created by potrace 1.10, written by Peter Selinger 2001-2011
</metadata>
<g transform="translate(0.000000,169.000000) scale(0.100000,-0.100000)"
fill="#000000" stroke="none">
<path d="M1217 1472 l-268 -87 3 -360 3 -360 29 -60 c56 -116 238 -273 439
-380 l79 -43 81 45 c144 79 220 134 313 227 63 63 100 109 120 151 l29 60 3
360 3 360 -273 88 c-150 48 -277 87 -283 86 -5 0 -131 -40 -278 -87z m553 -43
l250 -81 0 -134 0 -134 -520 0 -520 0 0 134 0 133 258 86 c141 47 263 83 270
81 6 -2 125 -40 262 -85z m-683 -395 c27 -7 36 -29 23 -55 -8 -13 -7 -19 0
-19 6 0 10 -12 8 -27 -3 -26 -7 -28 -50 -31 l-48 -3 0 70 c0 77 5 81 67 65z
m83 -54 c0 -60 0 -60 30 -60 17 0 30 -4 30 -10 0 -5 -20 -10 -45 -10 l-45 0 0
70 c0 56 3 70 15 70 12 0 15 -13 15 -60z m100 0 c0 -53 2 -60 20 -60 18 0 20
7 20 60 0 47 3 60 15 60 12 0 15 -13 15 -55 0 -65 -25 -101 -63 -89 -31 10
-37 22 -37 87 0 44 3 57 15 57 12 0 15 -13 15 -60z m180 45 c0 -10 -10 -15
-30 -15 -20 0 -30 -5 -30 -15 0 -9 9 -15 25 -15 14 0 25 -4 25 -10 0 -5 -11
-10 -25 -10 -18 0 -25 -5 -25 -20 0 -16 7 -20 30 -20 17 0 30 -4 30 -10 0 -5
-20 -10 -45 -10 l-45 0 0 70 0 70 45 0 c33 0 45 -4 45 -15z m160 -1 c0 -8 -9
-14 -20 -14 -18 0 -20 -7 -20 -55 0 -42 -3 -55 -15 -55 -11 0 -15 13 -15 54 0
46 -3 54 -21 59 -36 10 -11 25 41 25 36 0 50 -4 50 -14z m100 1 c0 -10 -10
-15 -30 -15 -20 0 -30 -5 -30 -15 0 -9 9 -15 25 -15 14 0 25 -4 25 -10 0 -5
-11 -10 -24 -10 -15 0 -26 -7 -29 -20 -4 -17 0 -20 29 -20 19 0 34 -4 34 -10
0 -5 -20 -10 -45 -10 l-45 0 0 70 0 70 45 0 c33 0 45 -4 45 -15z m105 -57 c19
-55 20 -68 9 -68 -8 0 -17 7 -20 15 -8 21 -51 19 -63 -2 -21 -38 -22 -1 -1 62
28 85 45 83 75 -7z m88 30 c5 -21 12 -38 16 -38 4 0 12 17 17 38 7 27 15 38
32 40 21 3 22 0 22 -67 0 -56 -3 -71 -15 -71 -11 0 -15 13 -16 53 l-1 52 -16
-53 c-8 -29 -20 -51 -25 -49 -5 1 -18 27 -28 57 l-18 55 2 -58 c1 -40 -2 -57
-10 -57 -9 0 -13 21 -13 71 0 67 1 70 22 67 17 -2 25 -13 31 -40z m-411 0 c6
-13 12 -42 13 -65 2 -35 -1 -43 -16 -43 -13 0 -19 11 -24 44 -6 39 0 86 10 86
3 0 10 -10 17 -22z m525 -224 c-14 -180 -157 -342 -440 -494 l-76 -41 -58 29
c-108 55 -248 154 -319 227 -92 93 -132 171 -140 278 l-7 77 523 0 523 0 -6
-76z"/>
<path d="M1253 1402 l-233 -76 0 -120 c0 -149 18 -146 22 4 l3 104 228 74 228
74 232 -76 232 -75 -3 -102 c-3 -64 0 -105 7 -112 8 -8 11 22 11 109 l0 120
-237 77 c-131 43 -242 77 -248 76 -5 0 -115 -35 -242 -77z"/>
<path d="M1172 1248 c-30 -30 0 -85 41 -74 15 3 27 13 27 21 0 17 -16 20 -25
5 -9 -15 -25 -2 -25 22 0 17 4 19 26 14 19 -5 25 -3 22 6 -6 18 -50 22 -66 6z"/>
<path d="M1256 1218 c2 -41 3 -43 33 -43 17 0 30 4 29 10 -2 5 -11 8 -20 7
-10 -2 -18 2 -18 7 0 6 9 11 20 11 27 0 25 18 -2 23 l-23 4 23 2 c35 2 26 21
-11 21 -33 0 -33 -1 -31 -42z"/>
<path d="M1340 1215 c0 -33 4 -45 13 -42 6 2 11 11 9 21 -4 23 15 20 23 -4 3
-11 13 -20 21 -20 15 0 19 12 7 24 -5 4 -8 20 -8 34 0 23 -5 27 -32 30 -33 3
-33 3 -33 -43z"/>
<path d="M1420 1250 c0 -5 7 -10 15 -10 11 0 15 -11 15 -36 0 -24 4 -34 13
-31 7 2 11 17 9 35 -2 24 1 32 12 32 9 0 16 5 16 10 0 6 -18 10 -40 10 -22 0
-40 -4 -40 -10z"/>
<path d="M1510 1215 c0 -33 4 -45 15 -45 11 0 15 12 15 45 0 33 -4 45 -15 45
-11 0 -15 -12 -15 -45z"/>
<path d="M1560 1215 c0 -25 5 -45 10 -45 6 0 10 9 10 19 0 12 8 21 23 24 22 4
22 4 -3 15 -24 10 -24 11 -2 11 34 1 26 21 -8 21 -29 0 -30 -2 -30 -45z"/>
<path d="M1635 1218 c0 -24 6 -43 13 -46 8 -2 12 10 12 42 0 30 -4 46 -12 46
-9 0 -13 -15 -13 -42z"/>
<path d="M1680 1215 c0 -45 0 -45 36 -45 24 0 34 4 31 13 -2 6 -11 11 -20 9
-8 -1 -18 2 -22 8 -3 5 3 10 14 10 28 0 27 18 -1 23 -20 4 -19 4 5 6 40 2 33
21 -8 21 -35 0 -35 0 -35 -45z"/>
<path d="M1760 1220 c0 -46 17 -59 56 -42 15 8 24 20 24 35 0 31 -18 47 -52
47 -26 0 -28 -3 -28 -40z"/>
<path d="M1040 995 c0 -9 9 -15 25 -15 16 0 25 6 25 15 0 9 -9 15 -25 15 -16
0 -25 -6 -25 -15z"/>
<path d="M1040 940 c0 -14 7 -20 23 -20 13 0 26 3 30 6 12 12 -6 34 -29 34
-17 0 -24 -6 -24 -20z"/>
<path d="M1762 976 c-10 -23 -9 -26 8 -26 21 0 23 4 11 33 -6 17 -8 16 -19 -7z"/>
<path d="M1022 763 c2 -45 12 -85 27 -117 50 -101 209 -239 389 -337 l63 -34
62 34 c178 97 341 238 387 336 27 55 41 185 21 185 -7 0 -11 -23 -11 -61 0
-83 -36 -154 -122 -240 -65 -65 -182 -149 -285 -204 l-52 -27 -76 41 c-241
130 -385 291 -385 433 0 36 -4 58 -11 58 -8 0 -10 -22 -7 -67z"/>
<path d="M1200 705 l0 -85 50 0 c39 0 50 3 50 16 0 13 -8 15 -35 12 l-35 -4 0
73 c0 58 -3 73 -15 73 -12 0 -15 -16 -15 -85z"/>
<path d="M1320 705 l0 -85 55 0 c44 0 55 3 55 16 0 13 -7 15 -40 9 -38 -6 -40
-6 -40 19 0 23 4 26 36 26 24 0 34 4 31 13 -2 6 -18 11 -36 11 -26 -2 -31 1
-31 22 0 21 4 24 40 24 29 0 40 4 40 15 0 12 -13 15 -55 15 l-55 0 0 -85z"/>
<path d="M1440 783 c0 -5 11 -42 23 -83 32 -103 50 -102 84 3 13 44 22 81 19
84 -11 12 -24 -10 -41 -69 -10 -35 -19 -58 -21 -53 -2 6 -10 36 -19 68 -10 35
-22 57 -31 57 -8 0 -14 -3 -14 -7z"/>
<path d="M1590 705 l0 -85 55 0 c44 0 55 3 55 16 0 13 -7 15 -40 9 -38 -6 -40
-6 -40 19 0 22 4 26 30 26 21 0 30 5 30 16 0 13 -7 15 -30 11 -27 -6 -30 -4
-30 18 0 22 4 25 40 25 29 0 40 4 40 15 0 12 -13 15 -55 15 l-55 0 0 -85z"/>
<path d="M1720 706 l0 -86 55 0 c42 0 55 3 55 15 0 11 -11 15 -38 15 l-39 0 1
67 c1 57 -2 68 -16 71 -16 3 -18 -6 -18 -82z"/>
<path d="M1451 565 l-33 -12 -2 -79 -1 -79 42 -16 c38 -15 46 -15 85 -1 l43
15 -2 81 -2 80 -33 12 c-40 15 -54 15 -97 -1z m76 -162 c14 -11 10 -13 -28
-13 -35 1 -40 3 -26 11 13 8 17 23 17 69 0 50 -3 60 -17 60 -14 1 -12 4 7 15
l25 13 3 -71 c2 -53 7 -75 19 -84z"/>
<path d="M925 655 c23 -155 202 -339 483 -494 l94 -52 97 55 c280 158 454 338
476 491 5 35 3 33 -13 -17 -25 -72 -95 -171 -169 -238 -70 -62 -232 -172 -325
-220 l-68 -35 -67 35 c-114 58 -269 167 -346 243 -77 75 -119 138 -150 222
-18 49 -18 49 -12 10z"/>
</g>
</svg>
