<?xml version="1.0" standalone="no"?>
<!DOCTYPE svg PUBLIC "-//W3C//DTD SVG 20010904//EN"
 "http://www.w3.org/TR/2001/REC-SVG-20010904/DTD/svg10.dtd">
<svg version="1.0" xmlns="http://www.w3.org/2000/svg"
 width="150.000000pt" height="127.000000pt" viewBox="0 0 150.000000 127.000000"
 preserveAspectRatio="xMidYMid meet">
<metadata>
Created by potrace 1.10, written by Peter Selinger 2001-2011
</metadata>
<g transform="translate(0.000000,127.000000) scale(0.100000,-0.100000)"
fill="#000000" stroke="none">
<path d="M440 681 l0 -420 97 -57 c118 -70 145 -89 135 -98 -3 -4 0 -5 8 -1 9
3 40 -11 70 -30 30 -19 57 -35 61 -35 3 0 21 10 40 23 19 13 67 41 107 62 39
22 72 44 72 50 0 5 5 3 10 -5 8 -13 10 -13 10 1 0 9 22 28 50 43 87 48 81 10
79 449 -1 216 -5 403 -9 417 -5 14 -8 19 -9 13 -1 -7 -5 -13 -11 -13 -5 0 -33
-14 -61 -31 -50 -31 -51 -32 -85 -15 -48 22 -350 24 -380 1 -28 -21 -37 -19
-109 25 -36 22 -67 40 -70 40 -2 0 -4 -189 -5 -419z m55 367 l25 -11 0 -363 0
-363 30 -16 c16 -8 80 -47 141 -86 69 -43 118 -68 127 -64 9 3 76 42 149 87
l133 81 0 362 0 362 25 13 c14 7 26 11 27 9 2 -2 2 -182 0 -399 l-3 -395 -22
-11 c-12 -6 -86 -50 -164 -97 -77 -48 -146 -87 -152 -87 -11 0 -308 175 -328
194 -9 8 -13 111 -15 404 -2 215 -2 392 -1 392 1 0 14 -5 28 -12z m494 -32
c10 -12 4 -21 -28 -47 -60 -47 -42 -48 33 0 36 22 70 41 76 41 7 0 10 -99 10
-290 l0 -290 -270 0 -270 0 0 290 c0 191 3 290 10 290 6 0 39 -18 74 -40 78
-50 93 -51 37 -4 -67 57 -51 64 149 64 132 0 170 -3 179 -14z m-327 -654 c-3
-9 -8 -9 -17 -2 -6 5 -15 6 -20 2 -4 -4 -5 2 -3 13 2 11 10 19 16 18 7 -2 12
3 13 10 0 6 4 3 8 -8 5 -11 6 -26 3 -33z m178 23 c0 -21 -5 -25 -30 -25 -17 0
-30 5 -30 13 0 8 -4 7 -10 -3 -8 -13 -10 -12 -10 3 0 9 2 17 4 17 2 0 11 3 20
6 11 4 16 0 17 -12 1 -17 2 -17 6 -1 2 9 9 15 14 12 5 -4 9 -1 9 4 0 6 2 11 5
11 3 0 5 -11 5 -25z m90 1 c0 -22 -4 -24 -40 -23 -33 1 -40 5 -40 22 0 11 4
16 8 10 10 -14 45 -12 50 3 7 21 22 13 22 -12z m86 7 c13 -17 14 -17 8 0 -3 9
-1 17 5 17 6 0 11 -6 11 -12 0 -10 2 -10 9 0 7 11 10 10 15 -3 7 -19 8 -65 2
-65 -2 0 -11 -3 -20 -6 -11 -4 -16 -1 -16 10 0 9 -5 16 -11 16 -5 0 -7 -5 -4
-10 3 -6 -1 -17 -9 -26 -12 -12 -16 -12 -17 -2 0 10 -2 10 -6 1 -7 -20 -23
-15 -23 6 0 24 16 36 23 19 4 -9 6 -8 6 2 0 8 -3 21 -8 29 -11 16 -4 41 11 41
6 0 17 -8 24 -17z m-422 1 c20 -8 20 -28 0 -48 -23 -24 -31 -20 -31 19 0 36 4
39 31 29z m126 -4 c0 -5 7 -7 15 -4 9 4 15 0 15 -8 0 -10 -11 -15 -30 -16 -23
0 -30 4 -30 19 0 10 7 19 15 19 8 0 15 -4 15 -10z m-20 -72 c0 -13 -5 -18 -14
-15 -7 3 -18 1 -22 -3 -17 -17 -54 1 -54 26 0 23 18 29 31 11 9 -12 40 4 32
17 -4 6 1 5 10 -3 9 -7 17 -22 17 -33z m110 15 c8 2 21 6 28 11 10 6 13 2 10
-15 -2 -20 -9 -24 -38 -25 -44 -2 -49 1 -43 26 4 14 9 17 17 11 6 -6 18 -9 26
-8z m140 -8 c0 -14 -5 -25 -11 -25 -5 0 -7 6 -3 13 6 10 4 10 -7 0 -20 -19
-39 -15 -39 8 0 15 4 19 19 14 11 -3 22 -1 26 5 10 16 15 12 15 -15z m-192 3
c-6 -16 -36 -34 -44 -26 -3 4 -4 13 -1 20 6 16 50 22 45 6z m222 -62 c0 -6
-160 -96 -171 -96 -6 0 -39 17 -73 37 -113 68 -119 63 72 62 95 0 172 -1 172
-3z"/>
<path d="M756 944 c-4 -14 -14 -24 -25 -24 -44 0 -33 -33 19 -60 50 -26 108
-34 143 -21 30 11 37 45 12 55 -8 3 -22 21 -31 40 -16 31 -20 34 -65 34 -42 0
-48 -3 -53 -24z m79 -32 c39 3 47 -14 11 -23 -26 -7 -86 14 -86 31 0 8 6 8 21
0 11 -6 36 -10 54 -8z"/>
<path d="M750 790 c0 -40 0 -40 39 -40 52 0 87 14 101 40 18 33 1 39 -22 7
-16 -21 -28 -27 -59 -27 -37 0 -39 2 -39 30 0 17 -4 30 -10 30 -5 0 -10 -18
-10 -40z"/>
<path d="M693 713 c64 -2 170 -2 235 0 64 1 11 3 -118 3 -129 0 -182 -2 -117
-3z"/>
<path d="M596 674 c-12 -11 -16 -35 -16 -89 0 -63 3 -76 19 -85 47 -25 111 -5
111 35 0 31 -35 35 -43 5 -3 -12 -14 -20 -27 -20 -20 0 -21 4 -18 67 2 56 6
68 21 71 12 3 20 -4 24 -17 8 -31 43 -28 43 4 0 42 -81 63 -114 29z"/>
<path d="M753 663 c-20 -30 -14 -150 8 -164 21 -13 73 -11 94 5 27 19 30 56 5
56 -11 0 -20 -6 -20 -14 0 -18 -38 -32 -52 -18 -5 5 -8 36 -6 68 3 53 5 59 26
62 17 3 25 -2 29 -17 6 -24 43 -29 43 -6 0 52 -97 74 -127 28z"/>
<path d="M910 591 l0 -101 49 0 c69 0 81 15 81 98 0 37 -4 73 -9 81 -5 8 -32
16 -65 19 l-56 4 0 -101z m90 -3 c0 -66 -1 -68 -25 -68 -24 0 -25 2 -25 69 0
67 1 69 25 67 24 -1 25 -4 25 -68z"/>
<path d="M693 463 c64 -2 170 -2 235 0 64 1 11 3 -118 3 -129 0 -182 -2 -117
-3z"/>
</g>
</svg>
