<?xml version="1.0" standalone="no"?>
<!DOCTYPE svg PUBLIC "-//W3C//DTD SVG 20010904//EN"
 "http://www.w3.org/TR/2001/REC-SVG-20010904/DTD/svg10.dtd">
<svg version="1.0" xmlns="http://www.w3.org/2000/svg"
 width="204.000000pt" height="192.000000pt" viewBox="0 0 204.000000 192.000000"
 preserveAspectRatio="xMidYMid meet">
<metadata>
Created by potrace 1.10, written by Peter Selinger 2001-2011
</metadata>
<g transform="translate(0.000000,192.000000) scale(0.100000,-0.100000)"
fill="#000000" stroke="none">
<path d="M856 1620 c-125 -33 -212 -84 -307 -179 -65 -66 -95 -104 -124 -163
l-38 -78 -64 0 -63 0 0 -185 c0 -172 1 -186 20 -205 12 -12 33 -20 54 -20 31
0 36 -4 47 -37 25 -78 72 -162 125 -227 l56 -66 34 30 34 30 64 -44 c149 -102
340 -131 498 -77 75 26 170 75 192 100 25 27 26 27 64 -10 l31 -30 38 42 c75
83 135 187 150 259 5 29 7 30 62 30 l56 0 -3 187 c-3 216 -6 223 -78 223 l-44
0 -35 69 c-115 230 -350 372 -609 370 -55 0 -118 -7 -160 -19z m369 -35 c128
-44 227 -112 304 -209 41 -52 101 -153 101 -171 0 -3 -16 -5 -35 -5 -32 0 -37
4 -61 52 -59 117 -207 234 -348 277 -84 26 -221 28 -310 5 -145 -37 -297 -154
-361 -277 -28 -54 -32 -57 -68 -57 l-38 0 36 69 c91 173 262 298 466 341 80
17 226 5 314 -25z m-78 -70 c105 -25 190 -73 269 -150 39 -38 82 -91 96 -117
l27 -48 -515 0 c-283 0 -514 2 -514 5 0 3 15 29 33 58 132 204 376 306 604
252z m-62 -340 c292 1 535 4 540 5 25 8 106 -14 115 -31 6 -10 10 -83 10 -163
0 -133 -2 -146 -19 -156 -16 -8 -861 -12 -861 -3 0 1 11 18 24 38 14 20 26 41
28 47 3 7 15 3 34 -11 18 -13 45 -22 65 -22 106 0 135 4 165 27 l32 23 36 -24
c45 -30 60 -31 86 -5 15 15 28 18 46 14 20 -5 32 1 64 35 22 23 40 49 40 59 0
18 -78 102 -94 102 -6 0 -27 -16 -47 -36 l-38 -37 -28 47 c-15 25 -36 49 -46
52 -28 9 -64 -21 -88 -72 -15 -35 -23 -44 -32 -35 -9 9 -8 17 1 32 11 17 11
25 -2 44 -28 42 -116 44 -160 4 -11 -11 -27 -19 -37 -19 -9 0 -22 -7 -29 -15
-7 -8 -18 -15 -25 -15 -7 0 -18 7 -25 15 -7 8 -19 15 -28 15 -9 0 -26 10 -40
23 -32 30 -130 31 -162 2 -77 -69 -62 -194 28 -232 31 -13 45 -14 81 -4 24 6
44 10 45 9 0 -2 7 -13 14 -25 6 -13 12 -27 12 -32 0 -12 -475 -10 -486 2 -5 4
-9 80 -9 167 0 133 3 161 15 167 23 10 191 19 220 12 14 -4 264 -5 555 -4z
m-330 -79 c16 -11 17 -17 7 -29 -11 -13 -16 -13 -42 0 -30 15 -64 6 -82 -21
-13 -20 -8 -69 9 -88 19 -22 66 -24 86 -3 13 13 17 13 28 -1 11 -14 10 -19
-11 -36 -19 -15 -35 -19 -67 -15 -51 5 -71 20 -90 65 -18 42 -3 92 34 122 30
24 100 27 128 6z m336 4 c15 -9 17 -15 9 -30 -10 -19 -12 -19 -35 -4 -26 17
-65 11 -65 -11 0 -7 23 -21 51 -30 33 -11 53 -25 58 -38 25 -67 -55 -110 -129
-72 -26 14 -28 18 -18 35 11 17 14 17 28 5 25 -22 80 -20 80 3 0 13 -12 22
-40 31 -67 20 -90 63 -53 103 18 20 82 25 114 8z m159 -1 c0 -7 20 -54 44
-105 l45 -94 -25 0 c-17 0 -27 8 -34 25 -8 22 -15 25 -60 25 -45 0 -50 -2 -56
-25 -4 -18 -13 -25 -29 -25 -23 0 -23 2 23 105 39 90 49 105 69 105 13 0 23
-5 23 -11z m168 -42 c3 -21 9 -27 28 -27 17 0 24 -5 24 -20 0 -15 -7 -20 -28
-20 -26 0 -28 -3 -24 -30 4 -25 1 -30 -17 -30 -17 0 -21 6 -21 30 0 27 -3 30
-30 30 -23 0 -30 4 -30 20 0 16 7 20 30 20 25 0 30 4 30 23 0 46 33 49 38 4z
m-509 -94 c-39 -96 -58 -118 -93 -109 -27 7 -35 24 -13 30 49 15 48 10 12 95
l-33 81 23 0 c20 0 26 -9 40 -55 8 -30 17 -55 19 -55 2 0 12 25 21 55 11 32
24 55 34 57 26 6 24 -16 -10 -99z m-147 55 c4 -7 8 -18 8 -24 0 -12 -74 -26
-96 -17 -17 6 -18 49 -1 57 20 9 80 -2 89 -16z m-296 -245 c17 -53 74 -151
110 -192 l41 -46 -27 -22 -27 -22 -47 59 c-39 49 -126 211 -126 234 0 3 16 6
35 6 25 0 37 -5 41 -17z m1089 -5 c-10 -32 -79 -146 -113 -186 l-28 -34 -69
38 c-38 21 -96 45 -129 54 -57 16 -61 19 -64 48 -3 28 -7 32 -33 32 -16 0 -45
7 -64 14 -30 13 -38 13 -62 1 -16 -8 -45 -15 -65 -15 -37 0 -38 -1 -38 -35 0
-28 -4 -35 -20 -35 -29 0 -141 -44 -191 -76 l-43 -27 -39 44 c-22 24 -57 79
-78 122 l-39 77 541 0 540 0 -6 -22z m91 -4 c-13 -51 -67 -151 -116 -213 -44
-57 -55 -65 -51 -39 0 4 -5 5 -13 2 -7 -3 -18 1 -24 9 -10 11 -5 22 23 51 38
41 100 146 110 189 6 23 12 27 42 27 33 0 35 -2 29 -26z m-553 -61 l38 -5 -3
-86 -3 -86 -49 -38 c-49 -36 -50 -37 -78 -20 -15 9 -28 22 -28 28 0 18 31 39
53 36 30 -5 64 17 78 50 10 25 9 33 -8 56 -31 41 -67 50 -101 25 -30 -22 -41
-75 -21 -99 10 -12 8 -19 -10 -37 -22 -22 -22 -22 -37 -3 -9 13 -14 46 -14 98
l0 78 33 1 c17 0 41 4 52 9 11 5 29 7 40 3 11 -3 37 -7 58 -10z m-29 -59 c31
-31 10 -94 -31 -94 -25 0 -53 30 -53 56 0 23 33 54 57 54 6 0 19 -7 27 -16z
m-174 -62 c0 -27 6 -56 13 -65 15 -21 108 -87 122 -87 5 0 36 20 68 45 l57 45
0 55 c0 39 4 55 13 55 22 0 118 -35 176 -64 50 -26 52 -28 36 -46 -24 -27
-141 -86 -210 -105 -148 -43 -339 -8 -471 87 l-45 32 48 25 c70 36 155 70 176
71 14 0 17 -9 17 -48z"/>
<path d="M710 1370 c-24 -24 -25 -38 -4 -68 17 -25 71 -31 92 -10 9 9 15 9 24
0 17 -17 48 -15 70 5 18 16 18 16 12 0 -3 -10 -1 -17 5 -17 6 0 11 14 11 30 0
20 5 30 15 30 10 0 15 -10 15 -30 0 -16 5 -30 10 -30 6 0 10 14 10 30 0 42 27
40 33 -2 4 -27 4 -25 3 7 -1 40 -1 40 -41 42 -26 1 -44 -4 -52 -15 -12 -14
-14 -14 -26 2 -17 24 -59 17 -72 -11 -5 -12 -22 -28 -38 -34 -25 -11 -31 -9
-50 10 -17 17 -19 25 -11 39 13 21 50 28 69 12 8 -7 15 -7 19 -1 8 12 -25 31
-53 31 -12 0 -30 -9 -41 -20z m170 -49 c0 -23 -19 -32 -42 -19 -24 12 -11 38
18 38 17 0 24 -6 24 -19z"/>
<path d="M1085 1380 c3 -5 15 -10 26 -10 16 0 19 -7 19 -45 0 -25 5 -45 10
-45 6 0 10 20 10 44 0 39 3 44 25 48 24 5 25 3 25 -43 0 -43 3 -49 20 -49 11
0 23 7 26 15 9 23 59 19 76 -6 12 -19 15 -20 27 -5 11 14 11 16 -2 16 -9 0
-25 19 -36 45 -11 25 -24 45 -28 45 -5 0 -21 -24 -35 -52 l-27 -53 0 53 -1 52
-71 0 c-44 0 -68 -4 -64 -10z m215 -46 c0 -8 -9 -14 -20 -14 -18 0 -19 3 -10
20 12 22 30 18 30 -6z"/>
<path d="M1031 1341 c-14 -25 -14 -91 -1 -91 6 0 10 6 10 14 0 8 12 16 26 18
35 4 53 31 38 56 -16 25 -60 28 -73 3z m59 -20 c0 -20 -17 -31 -37 -24 -7 3
-13 13 -13 24 0 14 7 19 25 19 18 0 25 -5 25 -19z"/>
<path d="M1206 1026 c-9 -21 -16 -39 -16 -40 0 -2 14 -1 30 2 17 2 30 5 30 7
0 1 -6 18 -14 36 l-14 33 -16 -38z"/>
</g>
</svg>
