<?xml version="1.0" standalone="no"?>
<!DOCTYPE svg PUBLIC "-//W3C//DTD SVG 20010904//EN"
 "http://www.w3.org/TR/2001/REC-SVG-20010904/DTD/svg10.dtd">
<svg version="1.0" xmlns="http://www.w3.org/2000/svg"
 width="254.000000pt" height="199.000000pt" viewBox="0 0 254.000000 199.000000"
 preserveAspectRatio="xMidYMid meet">
<metadata>
Created by potrace 1.10, written by Peter Selinger 2001-2011
</metadata>
<g transform="translate(0.000000,199.000000) scale(0.100000,-0.100000)"
fill="#000000" stroke="none">
<path d="M1220 1961 c12 -8 9 -12 -12 -20 -14 -5 -35 -20 -47 -32 -11 -12 -23
-20 -27 -17 -3 3 -16 -5 -30 -19 -17 -17 -31 -22 -47 -18 -14 4 -17 3 -10 -2
19 -14 -71 -54 -105 -48 -23 5 -24 4 -7 -5 18 -9 17 -10 -7 -7 -15 2 -26 1
-23 -3 4 -7 -151 -46 -200 -50 -16 -2 -54 -3 -82 -4 -29 0 -53 -5 -53 -9 0 -5
-4 -6 -10 -2 -5 3 -24 -1 -43 -8 -50 -22 -59 -53 -55 -205 l3 -132 -33 -6
c-18 -4 -37 -15 -43 -27 -8 -13 -13 -16 -18 -8 -4 6 -6 -18 -4 -55 2 -41 -1
-71 -8 -80 -9 -11 -43 -14 -150 -14 -131 0 -139 -1 -153 -22 -23 -32 -20 -70
10 -113 14 -21 26 -46 27 -56 1 -10 5 -17 10 -16 5 1 12 -4 15 -12 3 -9 0 -11
-9 -6 -8 5 -11 4 -6 -1 5 -5 13 -9 19 -9 6 0 18 -15 28 -32 9 -18 20 -30 23
-27 8 8 19 -34 12 -46 -3 -5 -1 -10 6 -10 7 0 4 -9 -9 -22 -11 -13 -21 -27
-22 -33 0 -5 -14 -25 -31 -44 -16 -19 -28 -40 -25 -48 3 -7 -1 -13 -10 -13 -9
0 -14 -6 -12 -13 5 -15 -27 -48 -38 -39 -4 4 -4 2 -1 -4 4 -6 3 -25 -2 -41 -7
-24 -5 -36 13 -57 l21 -27 261 1 c267 1 322 -6 310 -37 -3 -8 -2 -12 3 -9 5 3
19 -8 32 -25 13 -17 34 -34 46 -39 14 -6 20 -15 17 -24 -6 -15 28 -40 39 -29
10 9 38 -18 30 -29 -3 -6 0 -9 8 -6 7 2 29 -12 47 -31 19 -20 37 -36 41 -36
12 -1 66 -40 100 -72 19 -18 38 -33 43 -33 5 0 6 -5 2 -12 -5 -8 -2 -9 10 -5
9 4 15 3 12 -2 -8 -12 21 -34 34 -26 6 4 9 1 8 -7 -2 -7 2 -12 9 -11 6 2 21
-9 31 -22 11 -14 25 -25 31 -25 6 0 11 -4 11 -10 0 -5 14 -10 31 -10 29 0 28
2 -30 42 -33 24 -107 80 -163 126 -57 46 -110 89 -118 95 -130 101 -204 165
-243 206 l-48 51 -272 0 c-289 0 -297 1 -297 47 0 19 119 213 160 260 5 7 10
14 10 17 0 2 -38 61 -85 130 -47 69 -85 136 -85 149 0 43 15 47 177 47 l153 0
0 79 c0 88 8 102 63 104 l33 1 -1 159 c0 155 1 159 24 178 17 14 39 19 86 19
191 0 440 81 584 189 30 23 65 41 78 41 12 0 44 -16 70 -37 123 -94 345 -165
557 -178 81 -5 122 -12 132 -22 11 -11 14 -45 14 -152 0 -187 3 -197 47 -199
56 -2 63 -14 63 -106 l0 -81 157 0 157 0 10 -26 c8 -23 -2 -42 -78 -157 -47
-72 -86 -134 -86 -139 0 -4 17 -33 38 -64 20 -31 59 -89 86 -130 41 -62 47
-77 39 -99 l-8 -25 -278 -3 -277 -2 -42 -46 c-23 -25 -78 -76 -123 -112 -44
-37 -82 -69 -85 -72 -3 -3 -63 -53 -134 -110 -71 -58 -137 -112 -145 -120 -9
-8 -29 -25 -45 -38 l-29 -23 31 3 c20 1 34 9 37 19 3 10 19 23 35 30 16 8 26
17 24 21 -3 4 2 8 11 8 10 0 13 5 9 12 -4 7 -3 8 4 4 7 -4 20 -2 29 3 11 6 13
11 5 11 -7 0 -11 4 -7 10 3 5 13 6 23 3 9 -3 14 -3 10 1 -10 11 51 68 64 60 6
-4 8 -3 4 4 -3 6 8 21 26 33 18 13 40 30 48 39 8 8 31 27 50 42 19 14 53 43
75 63 22 21 47 38 55 40 8 1 15 6 15 12 0 5 8 17 17 27 10 9 22 25 27 34 9 15
37 17 272 19 170 1 272 6 290 13 52 22 45 87 -19 162 -8 9 -12 20 -10 25 6 11
-29 43 -38 35 -4 -4 -4 -2 0 5 3 6 -8 33 -26 58 -31 44 -32 47 -17 73 9 15 21
26 26 25 6 -1 9 6 6 15 -2 10 9 34 26 56 17 21 31 43 31 48 0 5 4 7 9 4 5 -3
15 2 22 11 10 11 10 14 2 9 -9 -5 -11 -2 -7 8 3 9 11 13 16 10 6 -4 8 1 4 14
-4 11 -2 23 4 27 15 9 2 66 -19 82 -11 8 -59 12 -147 13 -96 0 -134 4 -142 13
-6 7 -12 45 -14 84 l-2 71 -46 12 c-42 11 -46 15 -42 38 3 17 1 23 -7 18 -9
-6 -10 21 -5 111 5 107 4 122 -15 157 -11 21 -18 43 -14 48 3 6 -4 5 -15 -1
-14 -7 -23 -8 -27 -1 -3 5 -38 9 -78 8 -102 -4 -322 36 -296 53 10 6 10 9 2 9
-6 0 -15 -4 -18 -10 -3 -5 -11 -10 -16 -10 -6 0 -8 4 -5 9 8 12 -20 22 -41 14
-12 -5 -14 -3 -8 7 5 8 4 11 -3 6 -6 -3 -27 3 -46 15 -20 11 -36 18 -36 14 0
-4 -7 -2 -15 5 -8 7 -13 16 -10 20 3 5 -5 6 -17 2 -15 -4 -19 -2 -14 7 6 8 2
11 -10 9 -13 -2 -18 2 -16 14 2 12 -3 15 -18 11 -11 -3 -20 -1 -20 5 0 10 -38
27 -85 36 -21 5 -26 4 -15 -3z"/>
<path d="M1210 1784 c-119 -88 -340 -162 -544 -180 l-79 -7 7 -66 c3 -36 6
-91 6 -122 l0 -55 666 0 666 1 -4 123 c-3 67 -7 125 -10 128 -3 3 -39 7 -79
10 -193 14 -440 94 -554 179 l-30 23 -45 -34z m29 -11 c-13 -17 -12 -17 14 0
15 10 27 13 27 8 0 -6 -8 -15 -17 -20 -10 -6 -13 -11 -7 -11 5 0 15 5 22 12 9
9 18 7 39 -8 16 -11 55 -31 88 -45 33 -13 62 -26 65 -29 6 -6 30 -12 48 -13 7
0 11 -6 8 -12 -3 -8 4 -10 20 -7 15 3 32 -2 44 -13 11 -10 23 -15 27 -12 3 4
0 7 -7 7 -7 0 -11 2 -9 5 8 8 79 -15 79 -25 0 -6 8 -10 18 -10 15 0 15 2 2 11
-12 8 -10 9 10 5 14 -4 59 -11 100 -16 40 -6 77 -13 81 -18 5 -4 8 -43 8 -87
1 -127 11 -115 -98 -115 -594 -1 -1176 1 -1179 5 -10 10 -1 180 11 187 6 4 37
10 67 13 30 3 70 10 89 16 19 6 59 13 90 15 30 3 73 13 94 24 21 11 44 20 53
20 8 0 13 4 10 8 -6 10 63 34 76 26 4 -3 8 -1 8 4 0 5 8 12 18 16 26 9 88 46
77 46 -6 0 -1 7 9 15 26 20 32 19 15 -2z"/>
<path d="M488 1027 l-3 -227 778 0 777 0 0 228 0 227 -775 0 -774 0 -3 -228z
m1532 19 c0 -201 0 -201 -60 -209 -29 -3 -28 -4 8 -3 23 1 42 -2 42 -6 0 -5
-327 -7 -727 -6 -401 0 -708 4 -683 8 l45 7 -38 1 c-20 1 -46 -3 -57 -10 -10
-7 -23 -9 -27 -4 -8 8 -17 382 -9 401 2 7 261 9 755 7 l751 -2 0 -184z"/>
<path d="M1175 1163 c-16 -2 -38 -14 -48 -26 -10 -12 -15 -15 -11 -7 4 8 4 12
-1 8 -4 -4 -13 -4 -19 1 -6 4 -19 11 -28 14 -13 4 -15 2 -11 -10 5 -12 3 -14
-7 -8 -9 5 -11 4 -6 -3 4 -7 2 -12 -3 -12 -6 0 -14 -18 -17 -40 -4 -22 -12
-40 -18 -40 -6 1 -26 14 -45 30 -20 17 -40 26 -49 23 -11 -5 -13 -3 -7 8 6 11
5 12 -6 2 -7 -7 -20 -13 -30 -13 -9 0 -28 -11 -42 -24 -31 -29 -34 -88 -6
-127 10 -14 16 -29 12 -33 -3 -3 -4 -6 -2 -6 2 0 19 -4 37 -9 22 -7 30 -6 26
1 -4 6 -1 8 7 6 8 -3 13 -10 12 -16 -2 -6 4 -9 12 -5 12 4 13 8 4 19 -10 12
-8 13 6 8 12 -5 16 -4 12 3 -7 11 23 13 33 3 12 -12 81 -39 75 -30 -3 5 1 10
9 10 9 0 16 5 16 11 0 6 9 9 20 6 11 -3 18 -1 14 4 -3 5 -1 9 5 9 5 0 13 -10
16 -21 5 -16 9 -18 15 -9 4 7 13 9 19 6 6 -4 11 -1 11 7 0 8 7 17 15 21 8 3
15 13 15 22 0 10 5 14 16 10 8 -3 13 -2 10 3 -3 5 1 12 10 15 24 9 31 7 14 -4
-8 -5 -10 -10 -4 -10 19 0 24 13 12 29 -7 9 -8 13 -4 9 5 -4 15 -3 22 3 10 8
15 5 20 -15 3 -14 4 -33 0 -41 -3 -9 0 -15 8 -15 8 0 17 -10 21 -22 4 -14 8
-18 12 -10 2 6 9 12 14 12 6 0 7 -4 4 -10 -11 -18 4 -10 30 15 14 14 25 33 25
41 0 8 5 12 10 9 6 -4 8 -11 5 -16 -4 -5 -1 -9 5 -9 6 0 8 -4 5 -10 -3 -5 -1
-10 5 -10 6 0 8 -4 5 -10 -3 -5 -1 -10 6 -10 6 0 18 -8 26 -17 8 -10 12 -12 8
-5 -6 11 -2 14 28 16 6 1 15 5 19 10 4 6 14 4 24 -5 16 -12 17 -12 9 1 -6 12
-5 13 6 3 14 -14 133 -18 125 -5 -3 5 3 14 13 21 15 11 17 20 10 49 -5 23 -4
41 3 49 6 7 7 13 4 13 -4 0 -2 9 4 19 7 14 7 22 0 26 -6 4 -8 11 -5 16 3 5 -2
6 -11 2 -11 -4 -15 -3 -10 5 9 15 -29 34 -69 34 -35 0 -78 -18 -71 -30 2 -4
-9 -7 -25 -8 -17 -1 -26 3 -22 9 3 6 1 7 -6 3 -9 -6 -9 -11 1 -24 11 -13 11
-15 -4 -9 -9 3 -19 1 -22 -6 -2 -7 -5 -4 -5 6 -1 9 -13 30 -27 46 -24 28 -32
30 -109 33 -46 2 -81 0 -79 -3 2 -4 -4 -10 -13 -13 -9 -4 -20 -1 -24 5 -4 7
-17 9 -35 5 -28 -7 -28 -7 -9 8 11 8 18 15 15 14 -3 0 -18 -3 -35 -5z m-75
-120 c-1 -88 -11 -110 -57 -119 -24 -5 -35 -1 -52 17 -26 28 -27 55 -2 62 15
3 21 -1 23 -17 2 -13 10 -21 23 -21 18 0 20 8 23 78 3 69 5 77 22 77 18 0 20
-7 20 -77z m150 57 c40 -40 13 -100 -45 -100 -31 0 -32 -2 -31 -37 1 -30 -3
-38 -18 -38 -17 0 -18 9 -20 98 l-1 97 48 0 c34 0 53 -6 67 -20z m190 0 c0
-16 -7 -20 -30 -20 l-30 0 0 -80 c0 -73 -2 -80 -20 -80 -18 0 -20 7 -20 80 l0
80 -30 0 c-23 0 -30 4 -30 20 0 18 7 20 80 20 73 0 80 -2 80 -20z m247 -14
c24 -21 26 -27 18 -52 -6 -17 -27 -38 -50 -51 l-40 -23 48 0 c38 0 47 -3 47
-17 0 -15 -10 -18 -65 -18 -56 0 -65 2 -65 18 0 17 26 47 74 85 22 17 16 36
-12 40 -17 3 -22 -2 -22 -17 0 -14 -6 -21 -20 -21 -35 0 -25 46 15 68 29 17
41 15 72 -12z m-735 -49 c4 -7 8 -22 8 -34 0 -21 -5 -23 -45 -23 -26 0 -45 -5
-45 -11 0 -8 15 -9 45 -5 50 8 59 -3 23 -28 -30 -21 -50 -20 -82 5 -44 35 -31
103 24 121 18 6 62 -9 72 -25z m531 -19 c5 -21 12 -38 16 -38 4 0 12 17 17 38
7 27 15 38 32 40 12 2 22 2 22 -1 0 -2 -11 -30 -24 -63 -32 -78 -56 -84 -84
-20 -36 80 -37 88 -11 84 18 -2 26 -12 32 -40z"/>
<path d="M1175 1055 c0 -22 4 -25 25 -23 17 2 26 10 28 26 3 18 -1 22 -25 22
-23 0 -28 -4 -28 -25z"/>
<path d="M870 1020 c0 -5 11 -10 25 -10 14 0 25 5 25 10 0 6 -11 10 -25 10
-14 0 -25 -4 -25 -10z"/>
<path d="M207 1058 c4 -7 35 -53 70 -103 35 -49 63 -98 63 -109 0 -10 -31 -65
-70 -122 l-69 -103 185 -3 c102 -2 188 0 191 5 2 4 0 7 -5 7 -6 0 -17 17 -25
39 l-16 38 -61 0 c-43 0 -65 4 -71 14 -5 8 -9 89 -9 182 l0 167 -96 0 c-74 0
-93 -3 -87 -12z m143 -20 c0 -5 5 -6 10 -3 12 7 8 -160 -3 -172 -4 -3 -7 3 -7
15 0 11 -7 27 -15 36 -8 8 -15 19 -15 25 0 6 -5 11 -11 11 -6 0 -8 9 -4 23 4
15 3 18 -3 9 -7 -11 -14 -8 -29 15 -29 40 -20 54 33 52 24 -2 44 -7 44 -11z
m17 -270 c4 -56 32 -82 94 -88 39 -4 54 -9 54 -20 0 -12 -21 -15 -127 -16 -71
-1 -128 2 -128 6 0 15 31 68 50 85 11 10 20 26 20 36 0 10 8 20 18 22 9 3 17
5 17 6 0 0 1 -14 2 -31z"/>
<path d="M2140 903 c0 -93 -4 -173 -8 -180 -4 -7 -36 -13 -70 -15 l-63 -3 -19
-42 -19 -43 180 0 c141 0 179 3 173 13 -4 6 -28 43 -53 81 -25 37 -54 80 -63
94 -21 32 -14 52 63 164 32 47 59 89 59 92 0 3 -40 6 -90 6 l-90 0 0 -167z
m114 141 c13 -5 12 -13 -11 -53 -39 -68 -64 -103 -71 -97 -12 12 -13 128 -1
142 12 14 55 19 83 8z m-54 -279 c7 -8 9 -22 6 -31 -4 -11 -2 -15 7 -11 18 7
49 -46 41 -67 -5 -14 -21 -16 -98 -12 -50 2 -103 5 -118 5 -20 1 -26 5 -22 16
4 10 20 15 49 15 40 0 97 20 96 34 -1 18 13 66 19 66 4 0 13 -7 20 -15z"/>
<path d="M650 704 c0 -13 76 -121 113 -162 38 -40 126 -114 216 -182 18 -14
61 -48 95 -75 33 -28 93 -76 132 -107 l70 -56 66 57 c36 31 139 117 229 191
90 74 174 146 188 160 37 39 121 159 121 174 0 2 -277 4 -615 5 -338 0 -615
-2 -615 -5z m1169 -53 c-6 -17 -18 -36 -27 -43 -16 -12 -16 -11 -2 7 12 17 12
18 0 7 -8 -7 -15 -20 -15 -29 0 -10 -14 -26 -31 -38 -17 -11 -29 -26 -26 -33
3 -11 -9 -16 -30 -13 -4 0 -4 -7 -1 -16 4 -10 2 -14 -5 -9 -6 3 -15 -2 -21
-11 -5 -10 -13 -15 -17 -11 -9 9 -44 -9 -44 -23 0 -6 7 -3 16 5 8 9 18 16 22
16 7 -1 -15 -20 -89 -80 -23 -19 -58 -50 -77 -68 -19 -18 -40 -31 -46 -30 -6
2 -12 -2 -14 -7 -6 -19 -35 -45 -43 -39 -5 3 -9 -2 -9 -10 0 -10 -6 -13 -17
-9 -11 4 -14 3 -9 -5 4 -7 1 -12 -9 -12 -9 0 -14 -3 -12 -7 6 -10 -13 -27 -34
-31 -9 -1 -31 11 -48 27 -18 17 -34 30 -36 30 -3 1 -5 4 -4 7 0 4 -13 13 -30
22 -17 8 -31 21 -31 29 0 8 -4 12 -8 9 -5 -3 -23 8 -41 24 -18 17 -39 30 -47
30 -8 0 -14 5 -14 11 0 5 6 7 13 3 6 -4 8 -3 4 2 -4 4 -29 20 -55 34 -26 15
-46 32 -44 39 1 7 -2 10 -6 7 -5 -3 -21 5 -36 19 -14 13 -26 21 -26 18 0 -3
-9 2 -20 12 -10 9 -18 22 -17 29 1 6 -6 10 -16 10 -10 -1 -16 1 -13 4 3 3 -3
12 -14 19 -14 10 -19 21 -15 33 3 10 0 22 -6 26 -9 5 -10 2 -6 -9 12 -31 -11
-18 -32 18 -40 68 -69 65 545 65 l553 0 -10 -29z"/>
</g>
</svg>
