<?xml version="1.0" standalone="no"?>
<!DOCTYPE svg PUBLIC "-//W3C//DTD SVG 20010904//EN"
 "http://www.w3.org/TR/2001/REC-SVG-20010904/DTD/svg10.dtd">
<svg version="1.0" xmlns="http://www.w3.org/2000/svg"
 width="300.000000pt" height="157.000000pt" viewBox="0 0 300.000000 157.000000"
 preserveAspectRatio="xMidYMid meet">
<metadata>
Created by potrace 1.10, written by Peter Selinger 2001-2011
</metadata>
<g transform="translate(0.000000,157.000000) scale(0.100000,-0.100000)"
fill="#000000" stroke="none">
<path d="M783 1540 c-66 -40 -63 -9 -63 -757 0 -655 1 -679 20 -710 40 -66 8
-63 760 -63 752 0 720 -3 760 63 19 31 20 55 20 710 0 748 3 717 -63 757 -31
19 -55 20 -717 20 -662 0 -686 -1 -717 -20z m42 -41 c-20 -18 -41 -41 -48 -53
-7 -12 -14 -79 -18 -151 l-5 -130 -2 150 c-1 129 1 153 16 171 21 26 51 43 75
44 13 0 8 -8 -18 -31z m1368 20 c32 -17 57 -51 56 -79 0 -24 0 -24 -11 -5 -6
11 -27 37 -46 58 -37 38 -37 45 1 26z m-12 -56 l39 -42 0 -636 0 -636 -39 -42
-40 -42 -635 0 -636 0 -37 38 -38 37 0 645 0 644 30 31 c17 18 39 36 50 41 11
4 300 7 643 6 l623 -2 40 -42z m-1359 -1390 c46 -47 45 -50 -6 -29 -46 19 -66
52 -65 106 l0 45 15 -40 c8 -22 33 -59 56 -82z m1428 53 c0 -28 -48 -80 -80
-89 -16 -4 -10 6 24 43 25 27 46 54 46 60 0 5 2 10 5 10 3 0 5 -11 5 -24z"/>
<path d="M855 1468 c-56 -43 -55 -37 -55 -683 0 -646 -1 -640 55 -683 l28 -22
622 0 622 0 28 22 c56 43 55 37 55 683 0 646 1 640 -55 683 l-28 22 -622 0
-622 0 -28 -22z m1276 -23 c16 -9 34 -27 39 -41 14 -35 13 -564 0 -564 -5 0
-10 5 -10 11 0 8 -135 9 -472 5 -260 -3 -477 -7 -483 -7 -5 -1 -89 1 -185 5
-128 5 -171 4 -160 -4 13 -9 12 -11 -5 -8 -19 3 -20 12 -23 258 -2 140 0 270
3 288 4 23 16 39 38 52 31 19 55 20 630 20 520 0 602 -2 628 -15z m-1174 -601
c-3 -3 -12 -4 -19 -1 -8 3 -5 6 6 6 11 1 17 -2 13 -5z m1209 -43 c-5 -8 -203
-11 -667 -11 -578 0 -659 2 -659 15 0 13 82 15 658 17 361 2 661 0 666 -4 4
-3 5 -11 2 -17z m14 -157 c0 -74 -3 -133 -8 -130 -4 2 -308 6 -675 7 l-667 3
0 121 0 120 665 -1 c385 -1 667 2 671 7 12 20 14 3 14 -127z m-15 -154 c3 -5
4 -13 2 -17 -3 -5 -303 -7 -666 -5 -577 2 -661 4 -661 17 0 13 83 15 659 15
429 0 662 -3 666 -10z m4 -323 c-25 -59 2 -57 -662 -57 -398 0 -615 4 -628 10
-39 21 -49 62 -49 194 l0 124 667 2 c367 0 670 3 673 6 11 12 11 -251 -1 -279z"/>
<path d="M1280 1420 c-11 -11 -20 -31 -20 -45 0 -22 -3 -24 -18 -16 -11 6 -46
8 -78 5 -75 -5 -74 -5 -109 2 -61 12 -109 -63 -75 -116 6 -10 4 -20 -7 -32
-35 -39 19 -88 82 -76 20 4 25 1 25 -17 0 -12 11 -32 25 -45 31 -29 52 -21 75
28 10 20 22 32 36 32 11 0 25 5 32 12 9 9 17 8 37 -2 20 -11 30 -11 51 -1 17
7 30 8 38 2 6 -5 56 -9 110 -8 84 2 100 5 112 22 14 19 14 19 29 -2 12 -18 25
-21 72 -21 32 0 64 5 71 11 9 7 20 6 36 -3 18 -9 28 -9 46 0 12 6 28 9 36 6
16 -6 78 22 127 56 48 34 33 75 -39 111 -18 9 -34 27 -38 41 -3 13 -13 27 -22
30 -19 7 -54 -20 -54 -42 0 -12 -3 -12 -15 -2 -8 7 -24 10 -35 7 -16 -4 -20 0
-20 17 0 23 -38 66 -58 66 -21 0 -52 -39 -52 -66 0 -21 -3 -24 -13 -15 -13 10
-124 7 -135 -4 -3 -2 -14 0 -25 6 -15 9 -25 7 -46 -9 -26 -19 -27 -19 -50 -1
-13 11 -29 19 -37 19 -8 0 -14 8 -14 18 0 21 -29 52 -48 52 -7 0 -21 -9 -32
-20z m53 -127 c-2 -109 -3 -117 -23 -120 -19 -3 -20 2 -20 117 0 118 0 120 23
120 22 0 22 -2 20 -117z m425 45 l-6 -72 33 36 c23 24 37 33 46 27 11 -7 8
-14 -13 -35 l-27 -27 36 -44 c19 -23 31 -43 25 -43 -6 0 -16 -2 -24 -5 -8 -3
-24 13 -41 40 -16 25 -31 45 -33 45 -2 0 -3 -19 -2 -42 3 -37 0 -43 -17 -43
-19 0 -20 8 -23 118 l-3 117 27 0 27 0 -5 -72z m162 16 c0 -14 -21 -19 -33 -7
-9 9 13 34 24 27 5 -3 9 -12 9 -20z m-832 -29 c8 -8 -10 -25 -19 -19 -6 3 -17
3 -27 -1 -13 -5 -10 -12 21 -40 43 -39 44 -48 17 -75 -22 -22 -51 -26 -81 -9
-27 14 -14 30 20 23 43 -9 45 9 6 45 -41 37 -42 44 -14 72 15 15 28 19 47 14
15 -4 29 -8 30 -10z m145 6 c53 -20 56 -110 5 -145 -29 -21 -47 -20 -71 2 -19
17 -19 16 -16 -36 4 -48 2 -52 -18 -52 -23 0 -23 2 -23 115 0 108 1 115 20
115 11 0 20 -5 20 -11 0 -5 10 -3 22 5 26 19 29 19 61 7z m437 -11 c16 -16 20
-33 20 -85 0 -62 -1 -65 -22 -61 -21 3 -23 9 -26 65 -2 43 -7 64 -18 68 -28
10 -44 -17 -44 -76 0 -50 -2 -57 -20 -57 -18 0 -20 7 -20 78 l0 77 35 -1 c19
-1 38 2 42 5 12 12 33 7 53 -13z m-270 -44 c0 -60 19 -88 48 -69 12 7 18 27
20 67 3 48 6 56 22 56 18 0 20 -7 20 -79 0 -69 -2 -79 -17 -77 -10 0 -21 5
-25 11 -5 6 -12 5 -20 -3 -17 -17 -48 -15 -70 5 -14 12 -18 31 -18 80 0 56 2
63 20 63 18 0 20 -7 20 -54z m620 -21 c0 -6 -29 -25 -65 -43 -49 -24 -65 -28
-65 -17 0 8 21 26 48 39 l47 24 -47 21 c-27 11 -48 27 -48 36 0 12 14 8 65
-17 36 -18 65 -37 65 -43z m-136 17 c15 -18 15 -20 -3 -36 -19 -17 -20 -17
-30 2 -11 20 -6 52 9 52 4 0 14 -8 24 -18z"/>
<path d="M1160 1280 c-23 -55 21 -105 58 -68 7 7 12 26 12 43 0 59 -49 76 -70
25z m37 -32 c-3 -8 -6 -5 -6 6 -1 11 2 17 5 13 3 -3 4 -12 1 -19z"/>
<path d="M1207 1040 c-35 -28 -45 -81 -21 -118 39 -61 86 -69 130 -23 l27 29
24 -29 c33 -39 89 -40 127 -3 17 18 26 22 26 12 0 -8 11 -21 25 -28 20 -11 27
-11 40 0 13 11 20 11 41 0 19 -11 27 -11 36 -2 15 15 48 16 48 2 0 -15 106
-12 117 3 14 18 9 142 -6 161 -18 21 -98 21 -122 0 -16 -15 -20 -15 -41 0 -35
25 -103 21 -125 -8 l-19 -23 -28 23 c-36 32 -82 31 -116 -1 l-26 -25 -24 25
c-29 31 -77 33 -113 5z m99 -27 c17 -17 17 -18 -1 -21 -9 -2 -21 1 -25 8 -14
23 -45 6 -48 -26 -4 -43 21 -63 48 -39 15 13 24 15 31 8 13 -13 -25 -43 -53
-43 -25 0 -58 36 -58 63 0 58 67 89 106 50z m168 1 c21 -20 20 -73 -1 -96 -16
-18 -58 -24 -80 -10 -32 20 -32 94 0 114 20 13 65 9 81 -8z m180 -7 c9 -15 7
-22 -9 -35 -21 -16 -21 -16 3 -41 21 -23 22 -26 6 -30 -9 -1 -21 4 -26 12 -5
9 -16 24 -26 33 -16 17 -17 16 -20 -14 -2 -20 -9 -32 -18 -32 -11 0 -14 15
-14 66 l0 65 46 -3 c33 -2 50 -9 58 -21z m156 10 c0 -9 -11 -12 -35 -9 -27 3
-35 1 -35 -12 0 -12 9 -16 35 -16 19 0 35 -4 35 -10 0 -5 -16 -10 -35 -10 -28
0 -35 -4 -35 -20 0 -16 6 -19 36 -17 22 1 39 -3 41 -10 3 -10 -11 -13 -51 -13
l-56 0 0 65 0 65 50 0 c34 0 50 -4 50 -13z"/>
<path d="M1399 989 c-16 -31 4 -71 33 -67 25 4 38 35 27 66 -11 28 -45 29 -60
1z"/>
<path d="M1580 996 c0 -11 9 -16 26 -16 31 0 28 23 -4 28 -15 2 -22 -2 -22
-12z"/>
<path d="M899 711 c-41 -41 -40 -91 1 -133 27 -26 36 -30 67 -25 19 4 43 13
52 21 15 14 18 13 29 -4 16 -26 112 -29 132 -5 12 14 15 14 30 0 20 -18 42
-19 58 -3 9 9 15 9 24 0 17 -17 38 -15 59 4 14 13 16 21 8 36 -6 11 -8 31 -4
45 9 37 35 11 35 -36 0 -20 5 -42 12 -49 30 -30 78 3 78 55 0 17 7 36 15 43
13 11 15 6 15 -37 0 -27 5 -54 12 -61 17 -17 43 -15 58 3 12 14 15 14 30 0 24
-22 31 -19 74 25 44 46 55 50 49 17 -3 -14 3 -29 17 -42 20 -18 23 -19 50 -3
25 14 31 14 41 2 14 -17 110 -19 127 -2 9 9 15 9 24 0 7 -7 33 -12 59 -12 39
0 51 5 68 26 27 34 28 103 3 134 -23 29 -93 38 -126 17 -21 -14 -26 -14 -36
-2 -17 21 -98 20 -121 -1 -17 -15 -19 -15 -34 0 -21 20 -39 20 -55 1 -12 -14
-15 -14 -30 0 -22 20 -89 19 -112 -2 -17 -15 -19 -15 -39 3 -17 15 -23 16 -41
5 -15 -9 -23 -10 -31 -2 -17 17 -108 13 -128 -5 -16 -15 -20 -15 -41 0 -29 20
-101 21 -118 1 -11 -13 -15 -13 -33 0 -33 23 -102 19 -127 -7 l-20 -22 -20 22
c-30 32 -75 29 -111 -7z m97 -15 c26 -19 10 -33 -20 -17 -27 15 -41 10 -48
-17 -12 -46 29 -83 51 -44 8 14 12 15 23 4 11 -11 10 -16 -6 -28 -43 -31 -96
-4 -96 49 0 57 51 85 96 53z m171 2 c-2 -7 -19 -13 -37 -14 -19 0 -35 -5 -38
-12 -2 -8 9 -12 32 -12 26 0 36 -4 36 -16 0 -12 -8 -15 -32 -12 -25 2 -34 -1
-36 -14 -3 -15 4 -18 37 -18 23 0 41 -4 41 -10 0 -5 -22 -10 -50 -10 l-50 0 0
65 0 65 51 0 c36 0 49 -4 46 -12z m144 2 c23 -13 25 -48 4 -56 -12 -5 -12 -10
6 -32 15 -19 17 -28 8 -31 -7 -2 -22 8 -34 23 -26 33 -45 33 -45 1 0 -16 -6
-25 -15 -25 -12 0 -15 14 -15 65 l0 65 36 0 c19 0 44 -5 55 -10z m179 -6 c0
-10 -7 -14 -22 -12 -20 3 -22 0 -19 -49 2 -43 -1 -53 -13 -53 -13 0 -16 12
-16 54 0 49 -2 54 -20 49 -14 -4 -20 0 -20 11 0 13 11 16 55 16 43 0 55 -3 55
-16z m70 -49 c0 -45 -4 -65 -12 -65 -9 0 -13 20 -13 65 0 45 4 65 13 65 8 0
12 -20 12 -65z m150 49 c0 -12 -7 -15 -30 -12 -24 4 -30 1 -30 -14 0 -15 5
-17 25 -12 19 5 25 2 25 -10 0 -10 -9 -16 -25 -16 -20 0 -25 -5 -25 -25 0 -16
-6 -25 -15 -25 -12 0 -15 14 -15 65 l0 65 45 0 c35 0 45 -4 45 -16z m82 -49
c2 -53 0 -65 -12 -65 -12 0 -15 14 -15 65 0 89 22 89 27 0z m158 49 c0 -13 -8
-15 -35 -12 -24 3 -35 0 -35 -9 0 -8 13 -13 35 -13 26 0 35 -4 35 -16 0 -13
-7 -15 -35 -11 -30 5 -35 3 -35 -14 0 -15 7 -19 35 -19 19 0 35 -4 35 -10 0
-5 -22 -10 -50 -10 l-50 0 0 65 0 65 50 0 c39 0 50 -3 50 -16z m150 -4 c24
-24 26 -57 4 -88 -11 -17 -25 -22 -57 -22 l-42 0 3 65 4 65 34 0 c21 0 42 -8
54 -20z"/>
<path d="M1250 668 c0 -14 6 -19 22 -16 31 4 33 25 3 30 -20 4 -25 1 -25 -14z"/>
<path d="M2039 687 c0 -1 -2 -21 -4 -44 -3 -36 0 -43 15 -43 43 0 54 66 13 81
-13 5 -23 7 -24 6z"/>
<path d="M867 372 c-19 -21 -23 -102 -7 -133 15 -26 46 -24 82 6 l30 26 26
-26 c34 -34 63 -40 102 -20 21 11 35 13 43 7 16 -13 119 -13 135 0 8 7 16 7
25 -1 18 -14 244 -12 256 3 5 6 9 34 9 63 0 40 -5 56 -22 71 -20 19 -36 20
-271 20 -153 0 -255 -5 -263 -11 -9 -7 -21 -6 -38 2 -38 17 -89 14 -107 -7z
m102 -30 c13 -25 -5 -52 -36 -52 -20 0 -24 -4 -20 -20 4 -15 0 -20 -14 -20
-16 0 -19 8 -19 55 l0 55 40 0 c27 0 42 -5 49 -18z m138 -8 c15 -24 15 -29 2
-53 -29 -51 -109 -33 -109 24 0 56 76 76 107 29z m63 2 c0 -14 5 -28 10 -31 6
-4 10 7 10 24 0 24 4 31 20 31 14 0 22 -10 28 -32 l8 -33 7 33 c4 20 12 32 23
32 12 0 15 -6 10 -26 -4 -15 -10 -39 -13 -55 -8 -44 -39 -38 -50 9 l-10 37 -8
-37 c-9 -47 -41 -53 -51 -10 -3 15 -10 39 -14 55 -8 23 -6 27 11 27 14 0 19
-7 19 -24z m240 9 c0 -11 -8 -13 -30 -8 -19 3 -30 1 -30 -6 0 -6 11 -11 25
-11 14 0 25 -6 25 -14 0 -9 -8 -12 -25 -8 -19 3 -25 0 -25 -13 0 -13 6 -15 30
-10 23 5 30 3 30 -9 0 -12 -11 -16 -50 -16 l-50 0 0 55 0 55 50 0 c37 0 50 -4
50 -15z m127 -1 c3 -9 2 -24 -4 -33 -7 -11 -6 -22 5 -38 13 -21 13 -23 -6 -23
-12 0 -26 9 -32 20 -6 11 -15 20 -21 20 -6 0 -8 -9 -4 -20 5 -16 2 -20 -14
-20 -19 0 -21 6 -21 55 l0 55 45 0 c33 0 47 -5 52 -16z"/>
<path d="M910 326 c0 -9 7 -16 16 -16 17 0 14 22 -4 28 -7 2 -12 -3 -12 -12z"/>
<path d="M1041 322 c-13 -25 11 -63 29 -46 14 14 9 56 -7 61 -6 2 -16 -4 -22
-15z"/>
<path d="M1475 330 c-3 -5 3 -10 15 -10 12 0 18 5 15 10 -3 6 -10 10 -15 10
-5 0 -12 -4 -15 -10z"/>
<path d="M1631 377 c-19 -19 -14 -122 7 -139 29 -26 59 -30 96 -13 32 15 36
15 61 -1 21 -14 33 -15 58 -7 18 5 91 8 162 7 78 -1 135 2 142 8 17 14 6 117
-14 140 -13 14 -34 17 -121 17 -62 0 -112 -5 -120 -11 -9 -8 -16 -8 -24 0 -15
15 -81 15 -96 0 -7 -7 -15 -8 -24 -1 -18 13 -114 13 -127 0z m49 -62 c0 -33 4
-45 15 -45 11 0 15 12 15 45 0 38 3 45 20 45 17 0 20 -7 20 -43 0 -51 -13 -67
-55 -67 -42 0 -55 16 -55 67 0 36 3 43 20 43 17 0 20 -7 20 -45z m191 28 c13
-15 11 -16 -18 -10 -39 8 -45 -8 -8 -17 31 -8 42 -31 25 -51 -16 -19 -64 -19
-80 0 -17 21 -4 32 20 17 24 -15 40 -15 40 -2 0 5 -11 12 -25 16 -35 9 -51 30
-35 49 17 20 64 19 81 -2z m136 5 c-2 -7 -15 -12 -29 -10 -15 2 -29 -2 -33 -7
-4 -7 5 -11 24 -11 19 0 31 -5 31 -13 0 -7 -10 -13 -22 -12 -13 0 -23 -4 -23
-10 0 -5 12 -9 28 -7 19 2 27 -1 27 -12 0 -12 -11 -16 -50 -16 l-50 0 0 55 0
55 51 0 c36 0 49 -4 46 -12z m124 -4 c9 -11 10 -20 2 -32 -7 -13 -6 -23 5 -39
14 -22 13 -23 -11 -23 -17 0 -28 7 -32 20 -3 11 -11 20 -16 20 -5 0 -9 -9 -9
-20 0 -11 -7 -20 -15 -20 -12 0 -15 13 -15 55 l0 55 39 0 c23 0 44 -6 52 -16z"/>
<path d="M2070 330 c0 -5 9 -10 21 -10 11 0 17 5 14 10 -3 6 -13 10 -21 10 -8
0 -14 -4 -14 -10z"/>
</g>
</svg>
