<?xml version="1.0" standalone="no"?>
<!DOCTYPE svg PUBLIC "-//W3C//DTD SVG 20010904//EN"
 "http://www.w3.org/TR/2001/REC-SVG-20010904/DTD/svg10.dtd">
<svg version="1.0" xmlns="http://www.w3.org/2000/svg"
 width="300.000000pt" height="300.000000pt" viewBox="0 0 300.000000 300.000000"
 preserveAspectRatio="xMidYMid meet">
<metadata>
Created by potrace 1.10, written by Peter Selinger 2001-2011
</metadata>
<g transform="translate(0.000000,300.000000) scale(0.100000,-0.100000)"
fill="#000000" stroke="none">
<path d="M170 2969 c-60 -27 -107 -74 -136 -134 l-24 -50 0 -1285 0 -1285 24
-50 c29 -60 76 -107 136 -134 45 -20 59 -21 1330 -21 l1285 0 50 24 c60 29
107 76 134 136 20 45 21 59 21 1330 0 1271 -1 1285 -21 1330 -27 60 -74 107
-134 136 l-50 24 -1285 0 c-1271 0 -1285 -1 -1330 -21z m2623 -29 c56 -21 113
-72 143 -130 18 -34 19 -86 19 -1310 l0 -1275 -28 -50 c-32 -58 -73 -94 -135
-118 -39 -16 -143 -17 -1296 -17 l-1253 0 -61 31 c-63 31 -103 76 -130 144 -9
23 -12 332 -10 1295 3 1228 4 1266 22 1304 29 57 78 101 138 125 52 20 70 20
1295 20 1217 1 1243 1 1296 -19z"/>
<path d="M364 2920 c-125 -25 -211 -105 -248 -230 -14 -48 -16 -182 -16 -1185
0 -1226 -1 -1196 54 -1284 35 -55 101 -107 160 -128 48 -17 123 -18 1196 -18
1067 0 1148 1 1195 18 96 33 173 120 200 225 13 51 15 208 13 1208 l-3 1149
-33 67 c-38 77 -100 138 -170 165 -44 17 -109 18 -1177 20 -621 0 -1148 -3
-1171 -7z m2358 -63 c61 -30 95 -64 131 -131 l22 -41 0 -1185 0 -1185 -22 -41
c-36 -67 -70 -101 -131 -131 l-57 -28 -1155 0 -1155 0 -57 28 c-61 30 -95 64
-131 131 l-22 41 -3 1163 c-1 747 1 1177 8 1200 15 57 65 128 110 158 82 54
46 53 1270 51 l1135 -2 57 -28z"/>
<path d="M335 2844 c-60 -21 -114 -71 -141 -128 l-24 -51 0 -1166 0 -1165 26
-52 c14 -29 42 -65 62 -82 77 -63 15 -60 1252 -60 1241 0 1175 -3 1254 62 21
17 49 54 62 82 l24 51 0 1166 0 1165 -26 52 c-30 61 -80 105 -143 127 -65 22
-2284 21 -2346 -1z m2328 -35 c47 -13 102 -60 128 -110 19 -37 19 -69 20
-1198 0 -1149 0 -1160 -21 -1200 -11 -22 -32 -52 -47 -66 -64 -58 -5 -56
-1249 -53 l-1141 3 -48 30 c-35 21 -56 45 -74 80 -26 49 -26 53 -29 308 -2
142 -1 266 2 274 5 13 9 13 23 2 13 -12 229 -14 1270 -17 l1254 -2 24 24 c32
32 31 49 -1 75 -27 21 -27 21 -1261 21 -1042 0 -1239 -2 -1268 -14 -29 -13
-34 -12 -39 1 -11 28 -7 531 4 538 6 4 18 1 26 -6 12 -9 283 -12 1266 -10 747
2 1259 6 1269 12 40 21 30 84 -14 94 -37 7 -2497 11 -2499 3 -2 -4 -14 -9 -28
-10 l-25 -3 -3 505 c-1 313 1 523 8 553 18 83 71 144 148 167 42 13 2260 12
2305 -1z m107 -1264 l0 -25 -1265 0 -1265 0 0 25 0 25 1265 0 1265 0 0 -25z
m0 -625 l0 -30 -1265 0 -1265 0 0 30 0 30 1265 0 1265 0 0 -30z"/>
<path d="M1087 2702 c-12 -13 -17 -37 -17 -73 0 -76 -9 -86 -51 -60 -35 22
-105 27 -144 12 -11 -5 -33 -4 -49 0 -18 5 -39 4 -60 -5 -27 -11 -37 -11 -57
0 -32 18 -103 17 -139 -1 -75 -39 -91 -113 -39 -183 21 -28 26 -42 17 -42 -21
0 -58 -43 -58 -66 0 -25 33 -62 67 -75 35 -13 89 -11 128 5 l35 15 0 -50 c0
-54 20 -103 45 -113 61 -23 115 18 115 87 l0 45 55 4 c36 3 66 13 85 26 36 27
45 27 70 2 26 -26 80 -26 111 -1 23 19 24 19 54 -2 23 -17 43 -22 85 -20 30 0
81 1 112 2 32 0 66 6 77 13 16 10 23 10 33 0 21 -21 82 -15 106 11 19 20 22
35 22 108 0 96 11 126 35 95 11 -14 15 -45 15 -103 0 -70 3 -86 20 -103 22
-22 88 -28 107 -9 8 8 17 8 31 0 37 -20 89 -13 110 14 11 14 24 25 29 25 5 0
20 -11 33 -25 30 -32 70 -32 108 0 26 22 31 23 48 10 30 -22 48 -18 153 35
181 90 185 144 21 229 -69 36 -75 42 -81 77 -6 33 -30 64 -50 64 -4 0 -17 -8
-29 -18 -17 -14 -23 -31 -26 -82 -3 -58 -1 -67 22 -91 15 -15 39 -33 55 -39
37 -16 37 -26 -3 -46 -18 -9 -46 -28 -61 -43 l-28 -26 -34 40 c-48 56 -52 72
-22 103 40 44 51 70 35 90 -34 44 -76 54 -112 27 -32 -24 -36 -18 -36 44 0 78
-24 111 -81 111 -58 0 -79 -26 -79 -98 0 -32 -3 -61 -6 -65 -3 -3 -20 3 -38
14 -28 16 -47 19 -139 15 -58 -2 -114 -9 -124 -14 -12 -7 -26 -6 -46 5 -36 18
-82 9 -102 -20 -10 -15 -15 -46 -15 -98 0 -85 -6 -109 -25 -109 -18 0 -25 33
-25 121 0 89 -15 111 -77 113 -45 1 -53 9 -53 56 0 55 -23 80 -74 80 -29 0
-48 -6 -59 -18z m96 -236 l2 -216 -40 0 -40 0 2 217 c1 120 3 218 3 218 0 0
16 0 35 -1 l36 -1 2 -217z m805 92 c-2 -71 0 -128 3 -128 5 0 96 103 104 118
1 1 16 -3 34 -9 l33 -11 -29 -32 c-16 -17 -38 -43 -51 -57 l-22 -26 60 -71
c33 -40 60 -74 60 -76 0 -2 -10 -6 -22 -9 -13 -2 -30 -7 -38 -11 -12 -5 -30
15 -70 74 -30 44 -57 80 -60 80 -3 0 -4 -34 -2 -75 l4 -75 -41 0 -41 0 0 218
0 217 41 0 40 0 -3 -127z m308 47 c7 -18 -13 -45 -33 -45 -17 0 -27 24 -19 45
7 20 45 19 52 0z m-1595 -65 c15 -9 17 -15 9 -30 -9 -16 -14 -17 -40 -8 -23 7
-34 7 -45 -2 -23 -19 -18 -35 23 -66 83 -64 95 -90 67 -144 -26 -50 -127 -65
-180 -27 -14 11 -16 17 -6 35 11 21 13 21 36 6 29 -19 64 -15 79 8 9 15 1 27
-52 76 -71 66 -77 89 -33 133 24 24 38 29 76 29 25 0 55 -5 66 -10z m139 -11
l0 -20 29 20 c19 14 45 21 74 21 77 0 127 -58 127 -147 0 -60 -25 -111 -69
-140 -42 -28 -86 -29 -128 -3 l-33 20 0 -90 0 -90 -40 0 -40 0 0 225 0 225 40
0 c34 0 40 -3 40 -21z m471 -86 c-2 -98 -1 -104 24 -129 29 -29 58 -26 88 8
14 16 17 40 17 124 l0 104 40 0 40 0 0 -150 0 -150 -40 0 c-34 0 -40 3 -40 21
0 20 -1 20 -31 -5 -48 -41 -132 -31 -158 18 -6 11 -12 76 -14 144 l-2 123 39
-3 39 -3 -2 -102z m339 86 l0 -20 26 20 c35 27 112 29 144 3 27 -22 38 -82 39
-204 l1 -78 -42 0 -43 0 0 111 c0 99 -2 112 -20 125 -24 18 -75 11 -92 -13 -9
-11 -13 -53 -13 -120 l0 -103 -40 0 -40 0 0 150 0 150 40 0 c34 0 40 -3 40
-21z m715 -46 c102 -51 115 -60 115 -83 0 -23 -13 -33 -114 -83 -63 -31 -117
-57 -120 -57 -3 0 -6 10 -6 23 0 19 16 31 90 67 50 24 90 47 90 50 0 3 -41 24
-90 47 -79 37 -90 45 -90 67 0 14 2 26 5 26 3 0 57 -26 120 -57z"/>
<path d="M889 2496 c-35 -17 -50 -54 -46 -113 4 -65 27 -93 73 -93 47 0 69 36
69 111 0 81 -42 122 -96 95z m54 -71 c11 -39 -6 -85 -32 -85 -21 0 -31 18 -31
56 0 64 47 85 63 29z"/>
<path d="M985 1996 c-38 -17 -60 -41 -80 -89 -20 -49 -19 -82 5 -133 48 -99
169 -118 239 -38 37 42 38 54 6 92 -24 29 -24 29 -5 47 74 67 -62 167 -165
121z m114 -39 c13 -6 30 -22 38 -34 14 -21 13 -23 -12 -29 -20 -5 -30 -2 -41
15 -8 11 -26 21 -39 21 -47 0 -75 -55 -58 -113 16 -56 85 -70 103 -21 7 16 14
21 30 17 32 -9 33 -20 2 -54 -49 -55 -144 -41 -177 26 -52 112 50 226 154 172z
m-19 -92 c10 -12 10 -18 0 -30 -26 -32 -68 -8 -54 30 4 8 14 15 24 15 10 0 23
-7 30 -15z"/>
<path d="M1286 1987 c-50 -28 -76 -77 -76 -142 0 -65 26 -114 76 -142 107 -62
234 15 234 142 0 126 -127 204 -234 142z m166 -56 c24 -26 28 -40 28 -87 0
-50 -3 -59 -34 -90 -29 -29 -41 -34 -79 -34 -117 0 -166 149 -75 225 28 24 39
27 82 22 40 -3 55 -11 78 -36z"/>
<path d="M1320 1910 c-14 -14 -20 -33 -20 -65 0 -52 25 -85 65 -85 40 0 65 33
65 85 0 52 -25 85 -65 85 -14 0 -34 -9 -45 -20z m65 -65 c0 -23 -4 -30 -20
-30 -21 0 -31 25 -21 51 11 28 41 12 41 -21z"/>
<path d="M1610 2004 c-46 -19 -50 -32 -50 -160 0 -116 1 -124 22 -138 32 -22
55 -20 84 9 l25 25 37 -30 c44 -36 62 -37 90 -7 26 28 28 49 5 83 -15 24 -15
29 0 71 15 39 15 49 3 78 -8 18 -26 41 -39 50 -26 17 -150 30 -177 19z m140
-43 c37 -10 57 -52 42 -86 -7 -15 -21 -29 -32 -32 -26 -7 -25 -11 4 -42 13
-15 31 -38 41 -53 l17 -28 -30 0 c-25 0 -37 8 -62 45 -31 45 -63 70 -79 61 -4
-3 -6 -28 -3 -56 l5 -50 -32 0 -31 0 0 125 0 125 68 -1 c37 -1 78 -4 92 -8z"/>
<path d="M1643 1914 c-2 -7 -3 -21 -1 -31 3 -17 15 -19 84 -14 16 1 27 32 16
43 -15 15 -93 17 -99 2z"/>
<path d="M1915 1998 c-39 -23 -44 -40 -45 -154 0 -108 1 -111 28 -137 26 -25
35 -27 108 -27 71 0 83 3 102 23 26 28 28 54 5 79 -14 16 -14 22 -3 43 10 18
10 31 3 47 -8 17 -6 29 5 46 19 29 3 68 -34 82 -35 14 -144 12 -169 -2z m175
-54 c0 -26 -1 -26 -65 -22 l-65 4 0 -28 c0 -28 0 -28 65 -28 58 0 65 -2 65
-20 0 -18 -7 -20 -65 -20 l-65 0 0 -33 0 -33 70 4 c70 4 70 4 70 -22 l0 -26
-95 0 -95 0 0 125 0 125 90 0 90 0 0 -26z"/>
<path d="M383 1368 c-47 -34 -67 -75 -68 -139 0 -46 5 -62 28 -92 15 -20 41
-44 57 -52 67 -35 155 -6 187 60 16 34 16 35 -9 63 l-27 27 25 28 c13 15 24
33 24 39 0 6 -17 28 -39 49 -35 36 -43 39 -92 39 -40 0 -63 -6 -86 -22z m162
-51 l29 -32 -28 -3 c-17 -2 -32 3 -40 14 -16 21 -63 21 -84 0 -25 -25 -23
-113 2 -132 30 -21 62 -17 83 11 13 18 24 23 40 19 48 -13 -20 -84 -81 -84
-73 0 -120 55 -113 133 9 108 120 150 192 74z m-51 -62 c19 -14 19 -15 1 -35
-23 -25 -41 -26 -48 -1 -5 19 9 51 21 51 4 0 16 -7 26 -15z"/>
<path d="M660 1370 c-18 -18 -20 -33 -20 -140 0 -156 3 -160 128 -160 80 0 91
2 110 23 25 27 28 50 8 66 -17 14 -15 116 2 149 15 26 3 55 -28 72 -10 5 -55
10 -99 10 -68 0 -84 -3 -101 -20z m200 -40 c0 -18 -7 -20 -71 -20 l-70 0 3
-27 c3 -28 4 -28 66 -25 61 4 62 4 62 -23 0 -27 -1 -27 -62 -23 l-63 3 -3 -32
-3 -33 73 0 c67 0 74 -2 74 -20 0 -19 -7 -20 -98 -20 l-98 0 0 120 0 120 95 0
c88 0 95 -1 95 -20z"/>
<path d="M961 1371 c-19 -19 -21 -32 -21 -141 0 -110 2 -121 22 -140 29 -27
51 -25 79 5 30 31 40 31 69 0 27 -29 56 -32 88 -9 26 18 28 46 6 83 -14 24
-14 32 -2 70 19 55 13 82 -24 118 -27 25 -37 28 -113 31 -74 4 -85 2 -104 -17z
m194 -46 c14 -13 25 -33 25 -45 0 -24 -34 -60 -57 -60 -17 -1 -17 -1 -1 -11
10 -5 31 -30 48 -54 l31 -45 -33 0 c-28 0 -37 7 -66 50 -24 37 -38 50 -57 50
-23 0 -24 -2 -18 -50 l6 -50 -32 0 -31 0 0 120 0 120 80 0 c73 0 83 -3 105
-25z"/>
<path d="M1020 1280 c0 -29 2 -30 44 -30 26 0 48 6 56 15 20 25 -5 45 -56 45
-42 0 -44 -1 -44 -30z"/>
<path d="M1260 1370 c-34 -34 -27 -58 34 -108 12 -9 16 -31 16 -81 0 -59 3
-70 24 -90 56 -52 106 4 106 118 0 51 3 61 20 66 32 10 54 50 40 74 -17 33
-43 41 -134 41 -73 0 -89 -3 -106 -20z m210 -40 c0 -16 -7 -20 -37 -20 l-38 0
3 -100 3 -100 -28 0 -29 0 4 100 4 100 -41 0 c-34 0 -41 3 -41 20 0 19 7 20
100 20 93 0 100 -1 100 -20z"/>
<path d="M1552 1367 c-20 -21 -22 -34 -22 -138 0 -108 2 -117 23 -137 30 -28
52 -28 82 3 24 23 25 31 25 135 0 104 -1 112 -25 135 -30 31 -55 32 -83 2z
m68 -137 l0 -120 -25 0 -25 0 0 120 0 120 25 0 25 0 0 -120z"/>
<path d="M1715 1365 c-24 -23 -25 -31 -25 -133 0 -95 3 -113 21 -136 11 -14
29 -26 38 -26 29 0 69 38 73 68 2 21 9 28 29 30 15 2 37 14 50 28 20 21 22 29
13 53 -9 22 -8 32 8 50 24 30 23 37 -7 66 -21 22 -33 25 -100 25 -67 0 -79 -3
-100 -25z m185 -35 c0 -18 -7 -20 -60 -20 -60 0 -60 0 -60 -30 0 -30 1 -30 53
-30 46 0 53 -3 53 -20 0 -17 -7 -20 -53 -20 l-53 0 0 -50 c0 -47 -2 -50 -25
-50 l-25 0 0 120 0 120 85 0 c78 0 85 -2 85 -20z"/>
<path d="M1992 1367 c-20 -21 -22 -34 -22 -138 0 -108 2 -117 23 -137 30 -28
52 -28 82 3 24 23 25 31 25 135 0 104 -1 112 -25 135 -30 31 -55 32 -83 2z
m68 -137 l0 -120 -25 0 -25 0 0 120 0 120 25 0 25 0 0 -120z"/>
<path d="M2160 1370 c-18 -18 -20 -33 -20 -140 0 -156 3 -160 128 -160 80 0
91 2 110 23 25 27 28 50 8 66 -16 13 -15 111 1 151 23 55 -16 80 -126 80 -68
0 -84 -3 -101 -20z m200 -40 c0 -18 -7 -20 -71 -20 l-70 0 3 -27 c3 -28 4 -28
66 -25 61 4 62 4 62 -23 0 -27 -1 -27 -62 -23 l-63 3 -3 -32 -3 -33 73 0 c67
0 74 -2 74 -20 0 -19 -7 -20 -98 -20 l-98 0 0 120 0 120 95 0 c88 0 95 -1 95
-20z"/>
<path d="M2452 1365 c-19 -24 -22 -40 -22 -135 0 -95 3 -110 22 -135 21 -27
24 -27 101 -23 79 5 81 5 120 47 l39 42 -4 75 c-3 70 -5 76 -41 111 -36 36
-40 38 -116 41 -75 4 -79 3 -99 -23z m181 -36 c37 -29 54 -88 38 -138 -18 -61
-50 -81 -132 -81 l-69 0 0 120 0 120 69 0 c54 0 74 -4 94 -21z"/>
<path d="M2520 1230 l0 -80 39 0 c50 0 63 17 63 82 0 60 -16 78 -69 78 l-33 0
0 -80z m56 -17 c-11 -11 -19 6 -11 24 8 17 8 17 12 0 3 -10 2 -21 -1 -24z"/>
<path d="M1322 720 c-69 -16 -110 -79 -91 -137 8 -26 8 -38 0 -46 -27 -27 2
-98 51 -123 45 -24 125 -23 166 1 18 11 41 38 53 61 19 40 19 45 5 79 -9 20
-13 48 -10 61 17 66 -83 126 -174 104z m126 -66 c12 -14 22 -29 22 -35 0 -15
-66 -10 -80 6 -15 18 -46 20 -56 4 -9 -15 11 -26 58 -34 77 -13 107 -71 64
-122 -48 -57 -160 -52 -192 8 -18 36 -19 34 23 42 26 5 35 2 43 -14 15 -27 65
-23 65 5 0 15 -11 23 -48 32 -57 14 -87 38 -87 69 0 24 34 60 65 68 41 11 100
-3 123 -29z"/>
<path d="M891 694 c-17 -22 -21 -41 -21 -106 0 -133 50 -192 162 -193 62 0 94
17 132 69 18 23 21 42 21 123 0 88 -2 96 -24 114 -30 25 -72 24 -105 -2 l-26
-20 -26 20 c-38 30 -87 28 -113 -5z m101 -106 c3 -88 4 -93 26 -96 42 -6 52
13 52 104 l0 84 40 0 40 0 0 -82 c0 -46 -6 -94 -13 -108 -32 -65 -147 -76
-199 -19 -26 27 -28 35 -28 119 l0 90 40 0 39 0 3 -92z"/>
<path d="M1570 700 c-18 -18 -20 -33 -20 -140 0 -158 2 -160 138 -160 92 0
100 2 122 24 17 19 21 31 16 53 -10 38 -10 132 -1 165 5 21 2 32 -19 52 -23
24 -32 26 -121 26 -82 0 -98 -3 -115 -20z m220 -49 l0 -29 -65 6 c-62 5 -65 4
-65 -18 0 -22 3 -23 60 -17 l60 5 0 -29 c0 -29 0 -29 -60 -29 -57 0 -60 -1
-60 -25 0 -24 1 -24 64 -18 l63 6 5 -32 5 -31 -109 0 -108 0 0 120 0 120 105
0 105 0 0 -29z"/>
<path d="M1885 695 c-24 -23 -25 -31 -25 -133 0 -95 3 -113 21 -136 24 -31 67
-35 110 -9 26 16 29 16 47 0 38 -35 132 -11 132 33 0 11 -8 35 -17 54 -13 29
-14 40 -5 61 16 36 15 76 -4 103 -27 38 -67 52 -154 52 -73 0 -83 -3 -105 -25z
m213 -31 c37 -26 23 -114 -19 -114 -5 0 7 -21 26 -46 19 -25 35 -50 35 -55 0
-5 -19 -9 -42 -9 -41 0 -44 2 -68 47 -35 66 -50 67 -50 4 l0 -51 -40 0 -40 0
0 120 0 120 88 0 c63 0 94 -4 110 -16z"/>
<path d="M1978 605 c-5 -23 -2 -25 29 -25 36 0 56 25 32 41 -28 18 -56 10 -61
-16z"/>
</g>
</svg>
